<?xml version="1.0" standalone="no"?><!DOCTYPE svg PUBLIC "-//W3C//DTD SVG 1.1//EN" "http://www.w3.org/Graphics/SVG/1.1/DTD/svg11.dtd"><svg t="1735526129604" class="icon" viewBox="0 0 1024 1024" version="1.1" xmlns="http://www.w3.org/2000/svg" p-id="4468" xmlns:xlink="http://www.w3.org/1999/xlink" width="200" height="200"><path d="M781.653333 317.44c-32.426667-75.093333-119.466667-110.933333-194.56-80.213333s-110.933333 119.466667-80.213333 194.56 119.466667 110.933333 194.56 80.213333c76.8-30.72 112.64-117.76 80.213333-194.56 1.706667 1.706667 1.706667 0 0 0zM819.2 0H204.8C129.706667 0 68.266667 61.44 68.266667 136.533333v750.933334c0 75.093333 61.44 136.533333 136.533333 136.533333h614.4c75.093333 0 136.533333-61.44 136.533333-136.533333V136.533333c0-75.093333-61.44-136.533333-136.533333-136.533333zM238.933333 303.786667h83.626667c18.773333 0 34.133333 13.653333 34.133333 32.426666 0 18.773333-13.653333 34.133333-32.426666 34.133334h-85.333334c-18.773333 0-34.133333-13.653333-34.133333-32.426667-1.706667-18.773333 13.653333-34.133333 34.133333-34.133333-1.706667 0-1.706667 0 0 0z m0 266.24h146.773334c18.773333 0 34.133333 15.36 34.133333 34.133333s-15.36 34.133333-34.133333 34.133333H238.933333c-18.773333 0-34.133333-15.36-34.133333-34.133333 0-20.48 15.36-34.133333 34.133333-34.133333z m419.84 331.093333H238.933333c-18.773333 0-34.133333-15.36-34.133333-34.133333s15.36-34.133333 34.133333-34.133334h419.84c18.773333 0 34.133333 15.36 34.133334 34.133334-1.706667 20.48-15.36 34.133333-34.133334 34.133333zM819.2 701.44c6.826667 15.36 0 34.133333-15.36 40.96-3.413333 1.706667-8.533333 1.706667-11.946667 1.706667-11.946667 0-23.893333-6.826667-29.013333-18.773334L699.733333 575.146667l-5.12 1.706666c-112.64 27.306667-225.28-42.666667-252.586666-155.306666S484.693333 196.266667 597.333333 168.96s225.28 42.666667 252.586667 155.306667c20.48 85.333333-13.653333 174.08-87.04 221.866666l-5.12 3.413334 61.44 151.893333z" fill="#66B4F3" p-id="4469"></path></svg>